<?xml version="1.0" encoding="UTF-8" standalone="no" ?>
<!DOCTYPE svg PUBLIC "-//W3C//DTD SVG 1.1//EN" "http://www.w3.org/Graphics/SVG/1.1/DTD/svg11.dtd">
<svg xmlns="http://www.w3.org/2000/svg" xmlns:xlink="http://www.w3.org/1999/xlink" version="1.1" width="50" height="50" viewBox="0 0 400 400" xml:space="preserve">
<desc>Created with Fabric.js 3.6.2</desc>
<defs>
</defs>
<g transform="matrix(8.97 0 0 8.97 200 200)"  >
<path style="stroke: none; stroke-width: 1; stroke-dasharray: none; stroke-linecap: butt; stroke-dashoffset: 0; stroke-linejoin: miter; stroke-miterlimit: 4; fill: rgb(255,255,255); fill-rule: evenodd; opacity: 1;"  transform=" translate(-11.85, -12)" d="M 8 4 L 21 4 C 22.1045695 4 23 4.8954305 23 6 L 23 18 C 23 19.1045695 22.1045695 20 21 20 L 8 20 C 7.49479181 20 7.26688156 19.8135296 6.80345396 19.3176949 C 6.75712534 19.2681266 6.7099247 19.2160219 6.66192355 19.1616204 C 6.47807387 18.9532567 6.31421472 18.7494307 6.23177872 18.6401844 L 0.698291721 12 L 1.23177872 11.3598156 L 6.18176877 5.42511074 C 6.28584987 5.27697368 6.44363308 5.06720208 6.62702438 4.85177708 C 6.70024349 4.7657685 6.77251996 4.68522946 6.84400957 4.61079521 C 7.22963038 4.20929073 7.51572647 4 8 4 Z M 8.14992562 6.14822292 C 8.01407942 6.30779792 7.88980013 6.47302632 7.76822128 6.6401844 L 3.30164767 12.0000727 L 7.79436009 17.3925528 C 7.87696028 17.5005693 8.01456988 17.6717433 8.16160145 17.8383796 C 8.1974634 17.8790233 8.23193807 17.9170798 8.2646108 17.9520373 C 8.28044249 17.9689761 8.29568185 17.9849966 8.31020844 18 L 21 18 L 21 5.99999999 L 8.28281512 6 C 8.24198403 6.04270247 8.19723122 6.09265426 8.14992562 6.14822292 Z M 14 10.5857864 L 16.2928932 8.29289322 L 17.7071068 9.70710678 L 15.4142136 12 L 17.7071068 14.2928932 L 16.2928932 15.7071068 L 14 13.4142136 L 11.7071068 15.7071068 L 10.2928932 14.2928932 L 12.5857864 12 L 10.2928932 9.70710678 L 11.7071068 8.29289322 L 14 10.5857864 Z" stroke-linecap="round" />
</g>
</svg>